<?xml version="1.0" standalone="no"?>
<!DOCTYPE svg PUBLIC "-//W3C//DTD SVG 20010904//EN"
 "http://www.w3.org/TR/2001/REC-SVG-20010904/DTD/svg10.dtd">
<svg version="1.0" xmlns="http://www.w3.org/2000/svg"
 width="700.000000pt" height="700.000000pt" viewBox="0 0 700.000000 700.000000"
 preserveAspectRatio="xMidYMid meet">
<metadata>
Created by potrace 1.14, written by Peter Selinger 2001-2017
</metadata>
<g transform="translate(0.000000,700.000000) scale(0.100000,-0.100000)"
fill="#000000" stroke="none">
<path d="M0 3500 l0 -3500 3500 0 3500 0 0 3500 0 3500 -3500 0 -3500 0 0
-3500z m1550 560 l0 -160 -205 0 -205 0 0 -80 0 -80 203 -2 202 -3 0 -160 0
-160 -202 -3 -203 -2 0 -240 0 -240 -165 0 -165 0 0 645 0 645 370 0 370 0 0
-160z m1680 0 l0 -160 -145 0 -145 0 0 -485 0 -485 -160 0 -160 0 0 485 0 484
-142 3 -143 3 -3 158 -3 157 451 0 450 0 0 -160z m713 140 c186 -57 312 -219
325 -414 17 -277 -189 -496 -469 -496 l-79 0 0 -180 0 -180 -160 0 -160 0 0
645 0 645 239 0 c211 0 246 -2 304 -20z m1205 -137 l-3 -158 -202 -3 -203 -2
0 -80 0 -80 203 -2 202 -3 0 -160 0 -160 -202 -3 -203 -2 0 -80 0 -80 203 -2
202 -3 3 -157 3 -158 -371 0 -370 0 0 645 0 645 370 0 371 0 -3 -157z m1052
-3 l0 -160 -140 0 -140 0 0 -485 0 -485 -160 0 -160 0 0 485 0 485 -145 0
-145 0 0 160 0 160 445 0 445 0 0 -160z"/>
<path d="M3720 3755 l0 -145 58 0 c102 0 172 58 172 144 0 89 -66 146 -167
146 l-63 0 0 -145z"/>
</g>
</svg>
